<svg width="49" height="49" viewBox="0 0 49 49" fill="none" xmlns="http://www.w3.org/2000/svg">
<path d="M41.0151 39.4751C41.4234 39.6358 41.8944 39.286 41.7743 38.8639C40.0512 32.8082 35.0816 28.5 24.9999 28.5C14.9619 28.5 9.39553 32.771 7.38013 38.7855C7.23911 39.2063 7.7068 39.5758 8.12325 39.4224C10.1568 38.673 12.4896 38.9208 14.3252 40.1659C15.2919 40.8216 16.397 41.1454 17.4999 41.1454C18.6028 41.1454 19.7079 40.8216 20.6746 40.1659C22.9665 38.6114 26.0333 38.6114 28.3252 40.1659C29.2919 40.8216 30.397 41.1454 31.4999 41.1454C32.6028 41.1454 33.7079 40.8216 34.6746 40.1659C36.5521 38.8925 38.9495 38.6622 41.0151 39.4751Z" fill="#8FBFFA"/>
<path d="M36.5 11.5C27.1112 11.5 19.5 19.1112 19.5 28.5V28.9371C21.0808 28.6502 22.7599 28.5 24.5 28.5C25.5003 28.5 26.4804 28.5496 27.4333 28.6463V28.5C27.4333 19.1112 31.4926 11.5 36.5 11.5Z" fill="white"/>
<path d="M7.5 38.5C8.8678 32.8246 15.9584 28.5 24.5 28.5C33.0416 28.5 40.1322 32.8246 41.5 38.5" stroke="#3B82F6" stroke-width="3" stroke-linecap="round" stroke-linejoin="round"/>
<path d="M35.5 11.5C40.2714 11.5 44.5 15.4067 44.5 20.5" stroke="#3B82F6" stroke-width="3" stroke-linecap="round" stroke-linejoin="round"/>
<path d="M35.6406 21.5C38.2116 18.7273 38.071 14.2727 35.5 11.5" stroke="#3B82F6" stroke-width="3" stroke-linecap="round" stroke-linejoin="round"/>
<path d="M33.8896 3.14771C36.7276 4.78621 37.1385 8.66215 35.5 11.5001" stroke="#3B82F6" stroke-width="3" stroke-linecap="round" stroke-linejoin="round"/>
<path d="M35.5 11.5C32.4954 6.98052 27.1438 6.10437 23.5 9.83102" stroke="#3B82F6" stroke-width="3" stroke-linecap="round" stroke-linejoin="round"/>
<path d="M19.5 28.5C19.5 19.1112 27.1112 11.5 36.5 11.5C31.4926 11.5 27.4333 19.1112 27.4333 28.5" stroke="#3B82F6" stroke-width="3" stroke-linecap="round" stroke-linejoin="round"/>
<path d="M3.5 45.4999C5.38976 45.4999 7.27952 44.9435 8.92006 43.8308C9.85629 43.1957 11.1437 43.1957 12.0799 43.8308C13.7205 44.9435 15.6102 45.4999 17.5 45.4999C19.3898 45.4999 21.2795 44.9435 22.9201 43.8308C23.8563 43.1957 25.1437 43.1957 26.0799 43.8308C27.7205 44.9435 29.6102 45.4999 31.5 45.4999C33.3898 45.4999 35.2795 44.9435 36.9201 43.8308C37.8563 43.1957 39.1437 43.1957 40.0799 43.8308C41.7205 44.9435 43.6102 45.4999 45.5 45.4999" stroke="#3B82F6" stroke-width="3" stroke-linecap="round" stroke-linejoin="round"/>
</svg>
