<svg width="49" height="49" viewBox="0 0 49 49" fill="none" xmlns="http://www.w3.org/2000/svg">
<path d="M45.3809 18.5157L40.0277 9.02604C39.4959 8.08319 38.4973 7.5 37.4148 7.5H11.5856C10.5031 7.5 9.50456 8.08319 8.9727 9.02604L3.61956 18.5157C2.9579 19.6886 3.15893 21.1587 4.11118 22.111L23.086 41.0858C23.867 41.8668 25.1334 41.8668 25.9144 41.0858L44.8892 22.111C45.8415 21.1587 46.0425 19.6886 45.3809 18.5157Z" fill="#8FBFFA"/>
<path d="M45.3806 18.5157L40.0275 9.02604C39.4956 8.08319 38.497 7.5 37.4145 7.5H11.5854C10.5029 7.5 9.50431 8.08319 8.97245 9.02604L3.61932 18.5157C2.95766 19.6886 3.15868 21.1587 4.11093 22.111L23.0857 41.0858C23.8668 41.8668 25.1331 41.8668 25.9142 41.0858L44.889 22.111C45.8412 21.1587 46.0423 19.6886 45.3806 18.5157Z" stroke="#3B82F6" stroke-width="3" stroke-linecap="round" stroke-linejoin="round"/>
<path d="M19.2723 7.5L16.3171 19.2402C16.1109 20.059 16.1692 20.922 16.4835 21.7057L24.4915 41.6716C24.4971 41.6716 24.5084 41.6716 24.5084 41.6716" stroke="#3B82F6" stroke-width="3" stroke-linecap="round" stroke-linejoin="round"/>
<path d="M29.7269 7.5L32.6822 19.2402C32.8883 20.059 32.83 20.922 32.5157 21.7057L24.5078 41.6716" stroke="#3B82F6" stroke-width="3" stroke-linecap="round" stroke-linejoin="round"/>
<path d="M3.5 20.5H45.5" stroke="#3B82F6" stroke-width="3" stroke-linecap="round" stroke-linejoin="round"/>
</svg>
