<svg width="49" height="49" viewBox="0 0 49 49" fill="none" xmlns="http://www.w3.org/2000/svg">
<path d="M13.3725 20.8685C13.0955 21.7105 11.9044 21.7105 11.6275 20.8685L9.91727 15.6683C9.82614 15.3912 9.60882 15.1739 9.33174 15.0827L4.13151 13.3725C3.2895 13.0955 3.2895 11.9044 4.13151 11.6275L9.33174 9.91727C9.60882 9.82614 9.82614 9.60882 9.91727 9.33174L11.6275 4.13151C11.9044 3.2895 13.0956 3.2895 13.3725 4.13151L15.0827 9.33174C15.1739 9.60882 15.3912 9.82614 15.6683 9.91727L20.8685 11.6275C21.7105 11.9044 21.7105 13.0956 20.8685 13.3725L15.6683 15.0827C15.3912 15.1739 15.1739 15.3912 15.0827 15.6683L13.3725 20.8685Z" fill="#8FBFFA"/>
<path d="M17.4694 44.7983C17.1617 45.7339 15.8383 45.7339 15.5306 44.7983L13.6303 39.0203C13.529 38.7124 13.2876 38.471 12.9797 38.3697L7.20167 36.4694C6.26611 36.1617 6.26611 34.8383 7.20167 34.5306L12.9797 32.6303C13.2876 32.529 13.529 32.2876 13.6303 31.9797L15.5306 26.2017C15.8383 25.2661 17.1617 25.2661 17.4694 26.2017L19.3697 31.9797C19.471 32.2876 19.7124 32.529 20.0203 32.6303L25.7983 34.5306C26.7339 34.8383 26.7339 36.1617 25.7983 36.4694L20.0203 38.3697C19.7124 38.471 19.471 38.7124 19.3697 39.0203L17.4694 44.7983Z" fill="#8FBFFA"/>
<path d="M33.68 32.6459C33.3054 33.7847 31.6946 33.7847 31.32 32.6459L28.8021 24.9898C28.6788 24.6151 28.3849 24.3212 28.0102 24.1979L20.3541 21.68C19.2153 21.3054 19.2153 19.6946 20.3541 19.32L28.0102 16.8021C28.3849 16.6788 28.6788 16.3849 28.8021 16.0102L31.32 8.35407C31.6946 7.21531 33.3054 7.21531 33.68 8.35407L36.1979 16.0102C36.3212 16.3849 36.6151 16.6788 36.9898 16.8021L44.6459 19.32C45.7847 19.6946 45.7847 21.3054 44.6459 21.68L36.9898 24.1979C36.6151 24.3212 36.3212 24.6151 36.1979 24.9898L33.68 32.6459Z" fill="#8FBFFA"/>
<path d="M33.68 32.6459C33.3054 33.7847 31.6946 33.7847 31.32 32.6459L28.8021 24.9898C28.6788 24.6151 28.3849 24.3212 28.0102 24.1979L20.3541 21.68C19.2153 21.3054 19.2153 19.6946 20.3541 19.32L28.0102 16.8021C28.3849 16.6788 28.6788 16.3849 28.8021 16.0102L31.32 8.35407C31.6946 7.21531 33.3054 7.21531 33.68 8.35407L36.1979 16.0102C36.3212 16.3849 36.6151 16.6788 36.9898 16.8021L44.6459 19.32C45.7847 19.6946 45.7847 21.3054 44.6459 21.68L36.9898 24.1979C36.6151 24.3212 36.3212 24.6151 36.1979 24.9898L33.68 32.6459Z" stroke="#3B82F6" stroke-width="3" stroke-linecap="round" stroke-linejoin="round"/>
<path d="M17.4694 44.7983C17.1617 45.7339 15.8383 45.7339 15.5306 44.7983L13.6303 39.0203C13.529 38.7124 13.2876 38.471 12.9797 38.3697L7.20167 36.4694C6.26611 36.1617 6.26611 34.8383 7.20167 34.5306L12.9797 32.6303C13.2876 32.529 13.529 32.2876 13.6303 31.9797L15.5306 26.2017C15.8383 25.2661 17.1617 25.2661 17.4694 26.2017L19.3697 31.9797C19.471 32.2876 19.7124 32.529 20.0203 32.6303L25.7983 34.5306C26.7339 34.8383 26.7339 36.1617 25.7983 36.4694L20.0203 38.3697C19.7124 38.471 19.471 38.7124 19.3697 39.0203L17.4694 44.7983Z" stroke="#3B82F6" stroke-width="3" stroke-linecap="round" stroke-linejoin="round"/>
<path d="M13.3725 20.8685C13.0955 21.7105 11.9044 21.7105 11.6275 20.8685L9.91727 15.6683C9.82614 15.3912 9.60882 15.1739 9.33174 15.0827L4.13151 13.3725C3.2895 13.0955 3.2895 11.9044 4.13151 11.6275L9.33174 9.91727C9.60882 9.82614 9.82614 9.60882 9.91727 9.33174L11.6275 4.13151C11.9044 3.2895 13.0956 3.2895 13.3725 4.13151L15.0827 9.33174C15.1739 9.60882 15.3912 9.82614 15.6683 9.91727L20.8685 11.6275C21.7105 11.9044 21.7105 13.0956 20.8685 13.3725L15.6683 15.0827C15.3912 15.1739 15.1739 15.3912 15.0827 15.6683L13.3725 20.8685Z" stroke="#3B82F6" stroke-width="3" stroke-linecap="round" stroke-linejoin="round"/>
</svg>
