<svg width="49" height="49" viewBox="0 0 49 49" fill="none" xmlns="http://www.w3.org/2000/svg">
<path d="M31.4642 8.5666C31.0768 7.76336 30.7935 6.84514 31.1573 6.03094C31.9691 4.21387 33.8882 3.67949 35.2003 3.53308C36.0646 3.43663 36.8982 3.79619 37.4744 4.44761C41.0749 8.51835 44.7142 17.391 44.4898 27.4963C44.3401 34.2389 41.7889 38.846 39.8405 41.399C38.5298 43.1164 36.5559 44.111 34.4322 44.5081C31.2501 45.1032 26.0557 45.7886 20.5448 45.3339C18.2904 45.1478 16.0546 44.5708 14.1374 43.3704C10.2258 40.9214 7.47161 37.0771 6.712 31.6207C6.43822 29.654 7.48628 27.7287 9.39436 27.1791C9.76465 27.0725 10.163 26.9772 10.585 26.9027C12.1152 26.6325 13.2609 28.0026 13.7519 29.4768C14.8652 32.8189 17.9573 34.9412 20.9977 34.0322C21.6179 33.7923 22.2207 33.4302 22.7583 33.0435C24.2061 32.0024 24.8271 30.0853 24.0214 28.4945C22.5575 25.6041 19.5666 24.3416 15.9388 25.2804C14.3042 25.7034 12.4829 25.5275 11.5177 24.1421C11.3114 23.8459 11.1012 23.5234 10.8953 23.1774C9.72414 21.209 10.4992 18.6925 12.5595 17.6918C16.397 15.8277 20.5734 16.0091 24.5678 17.5501C22.9513 14.875 20.9901 12.4338 18.6885 10.5626C17.7617 9.80914 17.0017 8.73616 17.2577 7.56948C17.6298 5.87343 18.7572 4.79097 19.6917 4.16183C20.5278 3.59895 21.5973 3.65589 22.4823 4.1383C27.0609 6.63422 30.9115 10.8458 33.1158 13.6918C32.7395 11.7934 32.1691 10.0284 31.4642 8.5666Z" fill="#8FBFFA"/>
<path d="M31.4644 8.5666C31.077 7.76336 30.7937 6.84514 31.1575 6.03094C31.9694 4.21387 33.8885 3.67949 35.2006 3.53308C36.0649 3.43663 36.8985 3.79619 37.4746 4.44761C41.0752 8.51835 44.7144 17.391 44.49 27.4963C44.3403 34.2389 41.7891 38.846 39.8407 41.399C38.5301 43.1164 36.5561 44.111 34.4325 44.5081C31.2503 45.1032 26.056 45.7886 20.5451 45.3339C18.2907 45.1478 16.0549 44.5708 14.1376 43.3704C10.226 40.9214 7.47185 37.0771 6.71225 31.6207C6.43846 29.654 7.48652 27.7287 9.39461 27.1791C9.7649 27.0725 10.1633 26.9772 10.5852 26.9027C12.1154 26.6325 13.2611 28.0026 13.7522 29.4768C14.8654 32.8189 17.9576 34.9412 20.998 34.0322C21.6182 33.7923 22.2209 33.4302 22.7586 33.0435C24.2063 32.0024 24.8273 30.0853 24.0216 28.4945C22.5578 25.6041 19.5669 24.3416 15.939 25.2804C14.3044 25.7034 12.4832 25.5275 11.518 24.1421C11.3116 23.8459 11.1014 23.5234 10.8955 23.1774C9.72438 21.209 10.4994 18.6925 12.5597 17.6918C16.3972 15.8277 20.5737 16.0091 24.568 17.5501C22.9515 14.875 20.9904 12.4338 18.6887 10.5626C17.762 9.80914 17.0019 8.73616 17.2579 7.56948C17.63 5.87343 18.7575 4.79097 19.692 4.16183C20.5281 3.59895 21.5975 3.65589 22.4825 4.1383C27.0611 6.63422 30.9118 10.8458 33.116 13.6918C32.7398 11.7934 32.1693 10.0284 31.4644 8.5666Z" stroke="#3B82F6" stroke-width="3" stroke-linecap="round" stroke-linejoin="round"/>
</svg>
