<svg width="49" height="49" viewBox="0 0 49 49" fill="none" xmlns="http://www.w3.org/2000/svg">
<path d="M42.1658 40.6289C41.9546 43.1625 39.957 45.0268 37.419 45.1757C34.6303 45.3393 30.3916 45.5 24.5 45.5C18.6084 45.5 14.3697 45.3393 11.581 45.1757C9.04304 45.0268 7.04538 43.1625 6.83425 40.6289C6.65562 38.4855 6.5 35.4769 6.5 31.5C6.5 27.5231 6.65562 24.5145 6.83424 22.3711C7.04538 19.8376 9.04304 17.9732 11.581 17.8243C14.3697 17.6607 18.6084 17.5 24.5 17.5C30.3916 17.5 34.6303 17.6607 37.419 17.8243C39.957 17.9732 41.9546 19.8375 42.1658 22.3711C42.3444 24.5145 42.5 27.5231 42.5 31.5C42.5 35.4769 42.3444 38.4855 42.1658 40.6289Z" fill="#8FBFFA"/>
<path d="M28.5 7.5C28.5 9.70914 26.7091 11.5 24.5 11.5C22.2909 11.5 20.5 9.70914 20.5 7.5C20.5 5.29086 22.2909 3.5 24.5 3.5C26.7091 3.5 28.5 5.29086 28.5 7.5Z" fill="white"/>
<path d="M42.1658 40.6289C41.9546 43.1625 39.957 45.0268 37.419 45.1757C34.6303 45.3393 30.3916 45.5 24.5 45.5C18.6084 45.5 14.3697 45.3393 11.581 45.1757C9.04304 45.0268 7.04538 43.1625 6.83425 40.6289C6.65562 38.4855 6.5 35.4769 6.5 31.5C6.5 27.5231 6.65562 24.5145 6.83424 22.3711C7.04538 19.8376 9.04304 17.9732 11.581 17.8243C14.3697 17.6607 18.6084 17.5 24.5 17.5C30.3916 17.5 34.6303 17.6607 37.419 17.8243C39.957 17.9732 41.9546 19.8375 42.1658 22.3711C42.3444 24.5145 42.5 27.5231 42.5 31.5C42.5 35.4769 42.3444 38.4855 42.1658 40.6289Z" stroke="#3B82F6" stroke-width="3" stroke-linecap="round" stroke-linejoin="round"/>
<path d="M28.5 7.5C28.5 9.70914 26.7091 11.5 24.5 11.5C22.2909 11.5 20.5 9.70914 20.5 7.5C20.5 5.29086 22.2909 3.5 24.5 3.5C26.7091 3.5 28.5 5.29086 28.5 7.5Z" stroke="#3B82F6" stroke-width="3" stroke-linecap="round" stroke-linejoin="round"/>
<path d="M24.5 11.5V17.5" stroke="#3B82F6" stroke-width="3" stroke-linecap="round" stroke-linejoin="round"/>
<path d="M17.5 26.5V27.5" stroke="#3B82F6" stroke-width="3" stroke-linecap="round" stroke-linejoin="round"/>
<path d="M31.5 26.5V27.5" stroke="#3B82F6" stroke-width="3" stroke-linecap="round" stroke-linejoin="round"/>
<path d="M30.5 36.5C30.5 36.5 28.6143 38.5 24.5 38.5C20.3857 38.5 18.5 36.5 18.5 36.5" stroke="#3B82F6" stroke-width="3" stroke-linecap="round" stroke-linejoin="round"/>
</svg>
